<svg width="1792" height="563" viewBox="0 0 1792 563" fill="none" xmlns="http://www.w3.org/2000/svg">
<path d="M126.146 245.656V431H33.474V245.656H0.193988V168.344H33.474V128.92C33.474 107.075 35.522 89.6666 39.618 76.696C43.0313 65.7733 48.4927 55.704 56.002 46.488C63.5113 36.9306 72.2153 28.7386 82.114 21.912C92.354 15.0853 103.277 9.79464 114.882 6.03998C126.487 2.28532 137.922 0.40799 149.186 0.40799C157.037 0.40799 164.205 1.26132 170.69 2.96799C177.517 4.67465 184.343 7.06399 191.17 10.136V91.032C185.026 87.96 179.223 85.7413 173.762 84.376C168.642 82.6693 163.181 81.816 157.378 81.816C153.623 81.816 149.698 82.4986 145.602 83.864C141.847 84.888 138.263 87.2773 134.85 91.032C131.437 94.7866 129.047 100.248 127.682 107.416C126.658 114.243 126.146 123.629 126.146 135.576V168.344H191.17V245.656H126.146ZM291.71 298.904C291.71 307.437 293.246 315.459 296.318 322.968C299.39 330.136 303.486 336.451 308.606 341.912C314.067 347.373 320.382 351.64 327.55 354.712C335.059 357.784 343.081 359.32 351.614 359.32C359.806 359.32 367.486 357.784 374.654 354.712C382.163 351.64 388.478 347.373 393.598 341.912C399.059 336.451 403.326 330.136 406.398 322.968C409.811 315.8 411.518 308.12 411.518 299.928C411.518 291.736 409.811 284.056 406.398 276.888C403.326 269.379 399.059 262.893 393.598 257.432C388.478 251.971 382.163 247.704 374.654 244.632C367.486 241.56 359.806 240.024 351.614 240.024C343.081 240.024 335.059 241.56 327.55 244.632C320.382 247.704 314.067 251.971 308.606 257.432C303.486 262.893 299.39 269.208 296.318 276.376C293.246 283.203 291.71 290.712 291.71 298.904ZM408.446 168.344H501.63V431H408.446V401.816C388.649 426.733 361.854 439.192 328.062 439.192C308.947 439.192 291.369 435.779 275.326 428.952C259.283 421.784 245.289 411.885 233.342 399.256C221.395 386.627 212.009 371.779 205.182 354.712C198.697 337.645 195.454 319.043 195.454 298.904C195.454 280.131 198.697 262.381 205.182 245.656C211.667 228.589 220.713 213.741 232.318 201.112C243.923 188.483 257.747 178.584 273.79 171.416C289.833 163.907 307.582 160.152 327.038 160.152C359.806 160.152 386.942 171.587 408.446 194.456V168.344ZM642.518 245.656V431H549.846V245.656H519.126V168.344H549.846V89.496H642.518V168.344H695.254V245.656H642.518ZM913.902 300.44C913.902 292.248 912.366 284.568 909.294 277.4C906.563 269.891 902.467 263.405 897.006 257.944C891.545 252.483 885.059 248.216 877.55 245.144C870.382 241.731 862.531 240.024 853.998 240.024C845.806 240.024 838.126 241.56 830.958 244.632C823.79 247.704 817.475 251.971 812.014 257.432C806.894 262.893 802.627 269.379 799.214 276.888C796.142 284.056 794.606 291.736 794.606 299.928C794.606 308.12 796.142 315.8 799.214 322.968C802.286 330.136 806.553 336.451 812.014 341.912C817.475 347.032 823.79 351.299 830.958 354.712C838.467 357.784 846.318 359.32 854.51 359.32C862.702 359.32 870.382 357.784 877.55 354.712C884.718 351.64 890.862 347.373 895.982 341.912C901.443 336.451 905.71 330.136 908.782 322.968C912.195 315.8 913.902 308.291 913.902 300.44ZM797.166 562.072H704.494V168.344H797.166V197.528C816.963 172.611 843.929 160.152 878.062 160.152C896.835 160.152 914.243 163.907 930.286 171.416C946.67 178.584 960.835 188.483 972.782 201.112C984.729 213.741 993.945 228.589 1000.43 245.656C1007.26 262.723 1010.67 280.984 1010.67 300.44C1010.67 319.896 1007.26 337.987 1000.43 354.712C993.945 371.437 984.729 386.115 972.782 398.744C961.177 411.373 947.353 421.272 931.31 428.44C915.267 435.608 897.859 439.192 879.086 439.192C846.318 439.192 819.011 427.928 797.166 405.4V562.072ZM1229.89 261.528C1226.82 248.557 1220.51 238.147 1210.95 230.296C1201.39 222.445 1189.79 218.52 1176.13 218.52C1161.8 218.52 1150.02 222.275 1140.81 229.784C1131.93 237.293 1126.3 247.875 1123.91 261.528H1229.89ZM1121.35 315.288C1121.35 355.224 1140.12 375.192 1177.67 375.192C1197.81 375.192 1213 367 1223.24 350.616H1312.84C1294.75 410.691 1249.52 440.728 1177.16 440.728C1154.97 440.728 1134.66 437.485 1116.23 431C1097.8 424.173 1081.93 414.616 1068.61 402.328C1055.64 390.04 1045.57 375.363 1038.41 358.296C1031.24 341.229 1027.65 322.115 1027.65 300.952C1027.65 279.107 1031.07 259.48 1037.89 242.072C1044.72 224.323 1054.45 209.304 1067.08 197.016C1079.71 184.728 1094.9 175.341 1112.65 168.856C1130.74 162.029 1151.05 158.616 1173.57 158.616C1195.76 158.616 1215.73 162.029 1233.48 168.856C1251.23 175.341 1266.25 184.899 1278.53 197.528C1290.82 210.157 1300.21 225.688 1306.69 244.12C1313.18 262.211 1316.42 282.691 1316.42 305.56V315.288H1121.35ZM1450.72 245.656V431H1358.05V245.656H1327.33V168.344H1358.05V89.496H1450.72V168.344H1503.45V245.656H1450.72Z" fill="#2D2D2D"/>
<path d="M1517.81 205.208H1622.26V100.76H1687.8V205.208H1791.73V270.744H1687.8V375.192H1622.26V270.744H1517.81V205.208Z" fill="#16A34A"/>
</svg>
